<svg version="1.1" id="logo-link" class="logo-link" xmlns="http://www.w3.org/2000/svg" xmlns:xlink="http://www.w3.org/1999/xlink" x="0px" y="0px" viewBox="0 0 178.7 18.9" style="enable-background:new 0 0 178.7 18.9;" xml:space="preserve">
<g>
	<polygon id="Fill-1" points="0,0 0,18.6 12.7,18.6 12.7,14.9 4.3,14.9 4.3,0 	"></polygon>
	<polygon id="Fill-2" points="14.8,0 14.8,9.3 14.8,18.6 17,18.6 19.2,18.6 19.2,9.3 19.2,0 	"></polygon>
	<polygon id="Fill-3" points="34.4,0 34.4,11.4 26.8,0 22.4,0 22.4,18.6 26.6,18.6 26.6,6.6 34.8,18.6 38.5,18.6
		38.5,0 	"></polygon>
	<polygon id="Fill-4" points="52.8,0 46.1,8.1 46.1,0 41.8,0 41.8,18.6 46.1,18.6 46.1,13.6 48.2,11.2 53.2,18.6
		58.2,18.6 51.1,7.8 57.8,0 	"></polygon>
	<path id="Fill-5" d="M70.4,0l-7.2,18.6h2.5l1.9-4.9h8.4l1.9,4.9h2.5L73.2,0H70.4z M71.7,2.8l3.4,8.7h-6.7L71.7,2.8z"></path>
	<path id="Fill-6" d="M84.9,7.4V5.1h-2.3v13.6h2.3v-7.4c0-2.4,1.6-3.9,3.6-3.9c0.4,0,0.8,0,1.1,0.1V5
		C89.4,5,89,5,88.7,5C86.8,5,85.5,6,84.9,7.4"></path>
	<polygon id="Fill-8" points="103.4,5.1 100.5,5.1 94.5,11.4 94.5,0 92.2,0 92.2,18.6 94.5,18.6 94.5,14.1 96.5,12.1
		101.1,18.6 103.9,18.6 98.1,10.4 	"></polygon>
	<polygon id="Fill-11" points="106,5.1 106,11.9 106,18.6 107.2,18.6 108.4,18.6 108.4,11.9 108.4,5.1 107.2,5.1 	"></polygon>
	<polygon id="Fill-13" points="105.9,2.7 108.5,2.7 108.5,0 105.9,0 	"></polygon>
	<path id="Fill-15" d="M114.9,15v-8h3.1v-2h-3.1v-4h-2.3v4h-2.1v2h2.1v8.3c0,2.6,1.3,3.4,3.6,3.4c0.8,0,1.5-0.1,2.1-0.2
		v-2c-0.5,0.1-0.9,0.2-1.5,0.2C115.6,16.7,114.9,16.5,114.9,15"></path>
	<path id="Fill-16" d="M122.4,10.4c0.4-2.3,1.9-3.6,3.9-3.6c2.4,0,3.4,1.7,3.5,3.6H122.4z M126.3,4.8
		c-3.7,0-6.3,3-6.3,7.1c0,4.2,2.6,7.1,6.4,7.1c2.7,0,4.8-1.5,5.6-3.9l-2.1-0.7c-0.4,1.6-1.7,2.6-3.5,2.6c-2.4,0-4-1.8-4.1-4.7h9.8
		v-0.8C132.1,7.7,130.1,4.8,126.3,4.8L126.3,4.8z"></path>
	<polygon id="Fill-17" points="146.2,5.1 143.3,5.1 137.3,11.4 137.3,0 134.9,0 134.9,18.6 137.3,18.6 137.3,14.1
		139.2,12.1 143.9,18.6 146.6,18.6 140.9,10.4 	"></polygon>
	<path id="Fill-18" d="M151.5,15v-8h3.1v-2h-3.1v-4h-2.3v4H147v2h2.1v8.3c0,2.6,1.3,3.4,3.6,3.4c0.8,0,1.5-0.1,2.1-0.2
		v-2c-0.5,0.1-0.9,0.2-1.5,0.2C152.2,16.7,151.5,16.5,151.5,15"></path>
	<path id="Fill-19" d="M165.9,13.2c0,2.3-1.7,3.5-3.4,3.5c-2,0-2.8-1.3-2.8-3.2V5.1h-2.3v9c0,2.9,1.6,4.9,4.5,4.9
		c1.9,0,3.2-1,4-2.2v1.9h2.3V5.1h-2.3V13.2z"></path>
	<path id="Fill-20" d="M177.8,5c-1.8,0-3.2,1-3.8,2.4V5.1h-2.3v13.6h2.3v-7.4c0-2.4,1.6-3.9,3.6-3.9
		c0.4,0,0.8,0,1.1,0.1V5C178.5,5,178.2,5,177.8,5"></path>
</g>
</svg>